<svg viewBox="0 0 18 18" fill="none" xmlns="http://www.w3.org/2000/svg" width="24" height="24" class="sc-bdvvtL sc-iCfMLu gBfQOf sc-cCcXHH dywJep"><path fill-rule="evenodd" clip-rule="evenodd" d="M11.868 2a2.91 2.91 0 0 1-.665 2.084 2.447 2.447 0 0 1-1.932.913 2.768 2.768 0 0 1 .682-2.006A2.96 2.96 0 0 1 11.868 2Zm1.35 5.493a2.955 2.955 0 0 0-.384 1.42 2.855 2.855 0 0 0 1.742 2.627 6.543 6.543 0 0 1-.906 1.846c-.534.799-1.094 1.579-1.982 1.593-.423.01-.708-.111-1.005-.238-.31-.132-.633-.27-1.139-.27-.536 0-.874.142-1.2.28-.28.118-.553.232-.937.248-.846.031-1.493-.852-2.046-1.644-1.106-1.615-1.967-4.553-.813-6.552a3.173 3.173 0 0 1 2.67-1.629c.48-.01.941.176 1.345.338.309.124.584.234.81.234.198 0 .466-.106.778-.23.492-.195 1.094-.434 1.707-.37a3.025 3.025 0 0 1 2.383 1.289 2.955 2.955 0 0 0-1.022 1.058Z" fill="currentColor"/></svg>