<svg viewBox="0 0 18 18" fill="none" xmlns="http://www.w3.org/2000/svg" width="24" height="24" class="sc-bdvvtL sc-iCfMLu gBfQOf sc-cCcXHH dywJep"><path d="M5.563 3.19a.94.94 0 0 0-.216.653v10.313a.913.913 0 0 0 .216.653l.032.037 5.698-5.777v-.14L5.595 3.157l-.032.033Z" fill="url(#a)"/><path d="m13.178 10.995-1.886-1.926v-.14l1.886-1.925.041.028 2.258 1.296c.643.368.643.975 0 1.348l-2.249 1.296-.05.023Z" fill="url(#b)"/><path d="m13.233 10.967-1.94-1.968-5.73 5.81a.74.74 0 0 0 .952.032l6.718-3.874Z" fill="url(#c)"/><path d="m13.233 7.032-6.718-3.87a.734.734 0 0 0-.952.028L11.293 9l1.94-1.968Z" fill="url(#d)"/><defs><linearGradient id="a" x1="10.787" y1="3.735" x2="2.964" y2="11.45" gradientUnits="userSpaceOnUse"><stop stop-color="#00A0FF"/><stop offset=".01" stop-color="#00A1FF"/><stop offset=".26" stop-color="#00BEFF"/><stop offset=".51" stop-color="#00D2FF"/><stop offset=".76" stop-color="#00DFFF"/><stop offset="1" stop-color="#00E3FF"/></linearGradient><linearGradient id="b" x1="16.318" y1="8.999" x2="5.195" y2="8.999" gradientUnits="userSpaceOnUse"><stop stop-color="#FFE000"/><stop offset=".41" stop-color="#FFBD00"/><stop offset=".78" stop-color="orange"/><stop offset="1" stop-color="#FF9C00"/></linearGradient><linearGradient id="c" x1="12.18" y1="10.071" x2="1.569" y2="20.531" gradientUnits="userSpaceOnUse"><stop stop-color="#FF3A44"/><stop offset="1" stop-color="#C31162"/></linearGradient><linearGradient id="d" x1="4.12" y1="-.242" x2="8.856" y2="4.43" gradientUnits="userSpaceOnUse"><stop stop-color="#32A071"/><stop offset=".07" stop-color="#2DA771"/><stop offset=".48" stop-color="#15CF74"/><stop offset=".8" stop-color="#06E775"/><stop offset="1" stop-color="#00F076"/></linearGradient></defs></svg>