<svg width="84" height="20" fill="none" xmlns="http://www.w3.org/2000/svg"><g fill="rgba(255, 255, 255, 1)"><path fill-rule="evenodd" clip-rule="evenodd" d="M62.84 13.077c0 3.987-2.312 6.732-6.233 6.732-1.61 0-3.09-.673-3.74-1.71v1.503h-3.27V1.27h3.27v6.731c.754-.983 2.156-1.657 3.792-1.657 3.87 0 6.18 2.745 6.18 6.732Zm-10.18 0c0 2.356 1.377 3.91 3.48 3.91 2.077 0 3.453-1.554 3.453-3.91s-1.376-3.91-3.453-3.91c-2.104 0-3.48 1.554-3.48 3.91ZM16.187 19.602l-3.997-8.104c1.792-.88 2.856-2.615 2.856-4.66 0-3.263-2.31-5.36-5.868-5.36H.5l.026 18.124h3.532V12.17H8.58l3.503 7.43h4.103ZM4.057 4.507h4.575c1.818 0 2.857.88 2.857 2.33 0 1.45-1.039 2.305-2.857 2.305H4.059V4.507ZM26.933 6.553h3.272v13.049h-3.272V18.1c-.65 1.036-2.104 1.709-3.74 1.709-3.92 0-6.232-2.745-6.232-6.732s2.312-6.732 6.18-6.732c1.637 0 3.039.674 3.792 1.657v-1.45Zm-6.726 6.524c0 2.356 1.377 3.91 3.454 3.91 2.103 0 3.48-1.554 3.48-3.91s-1.377-3.91-3.48-3.91c-2.078 0-3.454 1.554-3.454 3.91Z"/><path d="m41.772 6.553-.207 3.158c-.468-.207-1.091-.31-1.662-.31-1.844 0-3.506 1.527-3.506 5.41v4.79h-3.272V6.554h3.272v2.381c.65-1.475 2.363-2.589 3.947-2.589.467 0 1.039.078 1.428.208ZM46.687 19.602h-3.272V6.552h3.272v13.05ZM65.059 19.602h3.272V1.27h-3.272V19.6Z"/><path fill-rule="evenodd" clip-rule="evenodd" d="M83.575 12.637c0-3.03-2.156-6.292-6.57-6.292-4.337 0-6.466 3.34-6.466 6.732 0 3.392 2.311 6.732 6.648 6.732 3.064 0 5.349-1.45 6.076-3.91l-3.064-.828c-.338 1.268-1.428 1.993-2.96 1.993-1.87 0-3.142-1.165-3.428-3.133h9.712c.026-.258.052-.828.052-1.294Zm-9.686-1.088c.363-1.76 1.506-2.718 3.116-2.718 1.895 0 2.908 1.165 3.064 2.719h-6.18Z"/><path d="M43.027 1.943a1.5 1.5 0 0 1 1.5-1.5H45.6a1.5 1.5 0 0 1 1.5 1.5v1.074a1.5 1.5 0 0 1-1.5 1.5h-1.073a1.5 1.5 0 0 1-1.5-1.5V1.943Z"/></g></svg>