
<svg width="100" height="100" viewBox="0 0 100 100" fill="none" xmlns="http://www.w3.org/2000/svg">
<path d="M0 0H4V3.99994V24V28H0V0Z" fill="#16161A"/>
<path d="M4 0H28V28H4V24H24L24 4L4 3.99994V0Z" fill="#16161A"/>
<path d="M40 0H44V8H36V12H32V3.99994H40V0Z" fill="#16161A"/>
<path d="M76 72H72V76H76V72Z" fill="#16161A"/>
<path fill-rule="evenodd" clip-rule="evenodd" d="M48 28H44V16H40V12H36V16H32V32H24V36H32V48H40V52H44L44 60H28L28 56H36V52H28V48H24V52H20V48L16 48V40H20V44H28V40H20V36H16V32H12V36H16V40H8V48L4.00002 48V52H8L8 48H16V52H12V60H4.00002V64V68H12V64H16V68H32V76H40V80H36V84L32 84V88H36V92H32V100H44L44 96H48L48 100H56V96H60V100H80V96H76V92H72V96H68V84H76V88H80V92H84L84 96H88V92H92V84H96V76H100V68H96V72H92V64H96V60H100V48H92V52H88V48H84V56H80V52H76V48L72 48V44H80V40H76V36H84V32H72V36H64V40H68V44L64 44V48H60V44L56 44V36H60V32H64V28H68V24L64 24V20H68V16H60V12H64V4H68V0H52V8H56V16H52V12H48V28ZM56 24H52V28H48L48 32H56V24ZM60 24V16H56V24H60ZM60 24V28H64V24H60ZM60 52V48H56V52H60ZM52 64V80H60V84H64V76H56V72H60V64H68V60H72V64H80V60H76V56H64V52H60V56H56V64H52ZM48 64H52V48H48V64ZM48 64H44V68H40V72H48L48 64ZM88 60L88 56H84L84 60H88ZM92 60V64H88L88 60H92ZM92 60V52H96V60H92ZM92 72H84V76H92V72ZM92 84V80H84V88H88V84L92 84ZM48 88L48 92H44V96H36V92H40V88H48ZM48 84H56V88H48L48 84ZM48 84L48 76H44V80H40V84H48ZM24 56L24 60H28L28 64H16V56H24ZM24 56L24 52H28L28 56H24ZM32 36H40V40H36V44H44L44 32H40V20H36V32H32V36ZM80 80V68H68V80H80Z" fill="#16161A"/>
<path d="M80 8V20H92V8H80Z" fill="#16161A"/>
<path fill-rule="evenodd" clip-rule="evenodd" d="M72 0V28H100V0H72ZM96 24H76V4H96V24Z" fill="#16161A"/>
<path d="M8 8V20H20V8H8Z" fill="#16161A"/>
<path d="M0 32H4V36H0V32Z" fill="#16161A"/>
<path d="M8 32H4V36H8V32Z" fill="#16161A"/>
<path d="M88 32H96V36H88V32Z" fill="#16161A"/>
<path d="M96 36H100V44H92V40H96V36Z" fill="#16161A"/>
<path d="M4 44H0V52H4.00002V48L4 44Z" fill="#16161A"/>
<path d="M0 56H4L4.00002 60H0V56Z" fill="#16161A"/>
<path d="M0 64H4.00002V68H0V64Z" fill="#16161A"/>
<path d="M0 72H4V76V96V100H0V72Z" fill="#16161A"/>
<path d="M4 72V76H24L24 96H4V100H28V72H4Z" fill="#16161A"/>
<path d="M8 80V92H20V80H8Z" fill="#16161A"/>
<path d="M96 88H100V92H96V88Z" fill="#16161A"/>
<path d="M92 96V100H100V96H92Z" fill="#16161A"/>
</svg>
